<svg width="48" height="49" viewBox="0 0 48 49" fill="none" xmlns="http://www.w3.org/2000/svg">
<path d="M30.7547 7.51701C30.6824 7.43627 28.0793 7.54889 25.8141 10.0075C23.5488 12.464 23.8973 15.2817 23.9483 15.354C23.9993 15.4262 27.1783 15.5388 29.2077 12.6807C31.237 9.82263 30.8269 7.59989 30.7547 7.51701ZM37.7969 32.4495C37.6949 32.2455 32.8563 29.8273 33.3068 25.1778C33.7573 20.5283 36.8661 19.2512 36.915 19.1131C36.9639 18.975 35.6464 17.4343 34.2503 16.6545C33.225 16.1052 32.0906 15.7902 30.9289 15.7322C30.6994 15.7258 29.9025 15.5303 28.2642 15.9787C27.1847 16.2741 24.7516 17.2303 24.0822 17.2686C23.4107 17.3068 21.4132 16.1593 19.2648 15.8555C17.89 15.5898 16.4322 16.1338 15.3889 16.5525C14.3476 16.969 12.3671 18.1547 10.9816 21.3061C9.59613 24.4553 10.3208 29.4448 10.8393 30.996C11.3578 32.5473 12.1674 35.0845 13.5444 36.9375C14.7684 39.0285 16.3919 40.4798 17.0697 40.9728C17.7476 41.4658 19.6601 41.7931 20.9861 41.1152C22.0528 40.4607 23.9781 40.0846 24.7388 40.1122C25.4974 40.1398 26.9934 40.4395 28.5255 41.2576C29.7389 41.6762 30.8864 41.502 32.036 41.0345C33.1856 40.5648 34.8495 38.7841 36.7917 35.1737C37.5284 33.495 37.8635 32.5869 37.7969 32.4495Z" fill="black"/>
<path d="M30.7547 7.51701C30.6824 7.43627 28.0793 7.54889 25.8141 10.0075C23.5488 12.464 23.8973 15.2817 23.9483 15.354C23.9993 15.4262 27.1783 15.5388 29.2077 12.6807C31.237 9.82263 30.8269 7.59989 30.7547 7.51701ZM37.7969 32.4495C37.6949 32.2455 32.8563 29.8273 33.3068 25.1778C33.7573 20.5283 36.8661 19.2512 36.915 19.1131C36.9639 18.975 35.6464 17.4343 34.2503 16.6545C33.225 16.1052 32.0906 15.7902 30.9289 15.7322C30.6994 15.7258 29.9025 15.5303 28.2642 15.9787C27.1847 16.2741 24.7516 17.2303 24.0822 17.2686C23.4107 17.3068 21.4132 16.1593 19.2648 15.8555C17.89 15.5898 16.4322 16.1338 15.3889 16.5525C14.3476 16.969 12.3671 18.1547 10.9816 21.3061C9.59613 24.4553 10.3208 29.4448 10.8393 30.996C11.3578 32.5473 12.1674 35.0845 13.5444 36.9375C14.7684 39.0285 16.3919 40.4798 17.0697 40.9728C17.7476 41.4658 19.6601 41.7931 20.9861 41.1152C22.0528 40.4607 23.9781 40.0846 24.7388 40.1122C25.4974 40.1398 26.9934 40.4395 28.5255 41.2576C29.7389 41.6762 30.8864 41.502 32.036 41.0345C33.1856 40.5648 34.8495 38.7841 36.7917 35.1737C37.5284 33.495 37.8635 32.5869 37.7969 32.4495Z" fill="black"/>
</svg>
