<svg width="48" height="49" viewBox="0 0 48 49" fill="none" xmlns="http://www.w3.org/2000/svg">
<path d="M40.6693 21.1706H39.3V21.1H24V27.9H33.6076C32.2059 31.8584 28.4396 34.7 24 34.7C18.3671 34.7 13.8 30.1329 13.8 24.5C13.8 18.8671 18.3671 14.3 24 14.3C26.6002 14.3 28.9657 15.2809 30.7669 16.8832L35.5753 12.0747C32.5391 9.24505 28.4778 7.5 24 7.5C14.6118 7.5 7 15.1118 7 24.5C7 33.8883 14.6118 41.5 24 41.5C33.3883 41.5 41 33.8883 41 24.5C41 23.3602 40.8827 22.2475 40.6693 21.1706Z" fill="#FFC107"/>
<path d="M8.95898 16.5873L14.5443 20.6835C16.0556 16.9418 19.7157 14.3 23.9989 14.3C26.599 14.3 28.9646 15.2809 30.7657 16.8832L35.5742 12.0747C32.538 9.24505 28.4767 7.5 23.9989 7.5C17.4692 7.5 11.8065 11.1865 8.95898 16.5873Z" fill="#FF3D00"/>
<path d="M24.0005 41.5004C28.3916 41.5004 32.3815 39.8199 35.3981 37.0872L30.1366 32.6349C28.3725 33.9765 26.2168 34.7021 24.0005 34.7004C19.5788 34.7004 15.8243 31.8809 14.4099 27.9463L8.86621 32.2175C11.6797 37.723 17.3934 41.5004 24.0005 41.5004Z" fill="#4CAF50"/>
<path d="M40.6693 21.1702H39.3V21.0996H24V27.8996H33.6076C32.9371 29.7836 31.7294 31.4298 30.1336 32.635L30.1361 32.6333L35.3977 37.0856C35.0254 37.4239 41 32.9996 41 24.4996C41 23.3598 40.8827 22.2471 40.6693 21.1702Z" fill="#1976D2"/>
</svg>
