<svg width="48" height="49" viewBox="0 0 48 49" fill="none" xmlns="http://www.w3.org/2000/svg">
<path d="M13.6117 30.3109V31.2553H7.00098V30.3109H13.6117ZM23.9427 30.3109C23.2796 30.9205 22.411 31.2577 21.5102 31.2552L14.5561 31.2459V30.3109H23.9427ZM33.7721 30.3109L33.4424 31.2552L33.1156 30.3109H33.7721ZM30.6107 30.3109V31.2553H25.8888V30.3109H30.6107ZM40.999 30.3109V31.2553H36.277V30.3109H40.999ZM25.0124 28.508C24.9314 28.8393 24.8034 29.1573 24.6325 29.4524H14.5561V28.508H25.0124ZM34.405 28.508L34.0736 29.4525H32.8142L32.4827 28.508H34.405ZM30.6107 28.508V29.4524H25.8888V28.508H30.6107ZM40.999 28.508V29.4524H36.277V28.508H40.999ZM13.6117 28.508V29.4524H7.00098V28.508H13.6117ZM11.7228 26.705V27.6495H8.88972V26.705H11.7228ZM19.278 26.705V27.6495H16.4448V26.705H19.278ZM24.9897 26.705C25.0734 27.0129 25.1159 27.3304 25.116 27.6495H21.9395V26.705H24.9897ZM35.038 26.705L34.7064 27.6495H32.1812L31.8496 26.705H35.038ZM30.6107 26.705V27.6495H27.7775V26.705H30.6107ZM39.1102 26.705V27.6495H36.277V26.705H39.1102ZM11.7228 24.9021V25.8465H8.88972V24.9021H11.7228ZM30.6107 24.9021V25.8465H27.7775V24.9021H30.6107ZM39.1102 24.9021V25.8465H36.277V24.9021H39.1102ZM23.8436 24.9021C24.1581 25.1697 24.4245 25.489 24.6313 25.8464H16.4448V24.9021L23.8436 24.9021ZM35.6709 24.9021L35.3394 25.8465H31.5482L31.2167 24.9021L35.6709 24.9021ZM33.1783 23.0992L33.4438 23.8626L33.7092 23.0992H39.1101V24.0436H36.2771V23.1759L35.9723 24.0437H30.9154L30.6107 23.1758V24.0437H27.7776V23.0992H33.1783ZM16.4448 23.0992H24.6315C24.4246 23.4567 24.1582 23.776 23.8437 24.0436H16.4448L16.4448 23.0992ZM11.7228 23.0992V24.0436H8.88972V23.0992L11.7228 23.0992ZM11.7228 21.2963V22.2407H8.88972V21.2963H11.7228ZM19.278 21.2963V22.2407H16.4448V21.2963H19.278ZM25.1161 21.2963C25.1159 21.6153 25.0734 21.9328 24.9897 22.2407H21.9395V21.2963H25.1161ZM32.5513 21.2963L32.8798 22.2407H27.7776V21.2963H32.5513ZM39.1101 21.2963V22.2407H34.0079L34.3362 21.2963H39.1101ZM13.6116 19.4933V20.4378H7.00098V19.4933L13.6116 19.4933ZM24.6324 19.4933C24.8034 19.7884 24.9313 20.1064 25.0123 20.4377H14.556V19.4933H24.6324ZM40.9989 19.4933V20.4377H34.6348L34.9632 19.4933H40.9989ZM31.9244 19.4933L32.2528 20.4377H25.8887V19.4933H31.9244ZM13.6118 17.6905V18.6348H7.00098V17.6904L13.6118 17.6905ZM21.5102 17.6904C22.4108 17.6892 23.2789 18.0263 23.9427 18.6348H14.5561V17.6904H21.5102ZM40.999 17.6904V18.6349H35.2618L35.5902 17.6905L40.999 17.6904ZM31.2976 17.6904L31.6259 18.6349H25.8888V17.6905L31.2976 17.6904Z" fill="black"/>
</svg>
