<svg width="48" height="49" viewBox="0 0 48 49" fill="none" xmlns="http://www.w3.org/2000/svg">
<path d="M41 24.5C41 15.1112 33.3888 7.5 24 7.5C14.6112 7.5 7 15.1112 7 24.5C7 32.9851 13.2167 40.0182 21.3438 41.2935V29.4141H17.0273V24.5H21.3438V20.7547C21.3438 16.4941 23.8818 14.1406 27.765 14.1406C29.6249 14.1406 31.5703 14.4727 31.5703 14.4727V18.6562H29.4267C27.3149 18.6562 26.6562 19.9667 26.6562 21.3112V24.5H31.3711L30.6174 29.4141H26.6562V41.2935C34.7833 40.0182 41 32.9853 41 24.5Z" fill="#1877F2"/>
<path d="M30.6174 29.4141L31.3711 24.5H26.6562V21.3112C26.6562 19.9666 27.3149 18.6562 29.4267 18.6562H31.5703V14.4727C31.5703 14.4727 29.6249 14.1406 27.7648 14.1406C23.8818 14.1406 21.3438 16.4941 21.3438 20.7547V24.5H17.0273V29.4141H21.3438V41.2935C22.2225 41.4312 23.1106 41.5002 24 41.5C24.8894 41.5003 25.7775 41.4312 26.6562 41.2935V29.4141H30.6174Z" fill="white"/>
</svg>
