<svg width="20" height="20" viewBox="0 0 20 20" fill="none" xmlns="http://www.w3.org/2000/svg">
<path fill-rule="evenodd" clip-rule="evenodd" d="M17.4367 9.79199H15.1917C14.005 9.79199 13.1242 10.6745 13.1242 11.667C13.1242 12.6595 14.005 13.542 15.1908 13.542H17.4558C17.6275 13.5312 17.7017 13.4153 17.7075 13.3453V9.98866C17.7017 9.91866 17.6275 9.80283 17.4558 9.79283L17.4367 9.79199ZM17.375 8.54199C17.43 8.54199 17.4833 8.54199 17.5333 8.54533C18.2583 8.58949 18.9008 9.13699 18.955 9.90199C18.9583 9.95199 18.9583 10.0062 18.9583 10.0562V13.2778C18.9583 13.3278 18.9583 13.382 18.955 13.432C18.9008 14.197 18.2583 14.7445 17.5325 14.7895C17.4833 14.792 17.43 14.792 17.3742 14.792H15.1925C13.405 14.792 11.875 13.4353 11.875 11.667C11.875 9.89866 13.405 8.54199 15.1917 8.54199H17.3608H17.375Z" fill="#FF60A3"/>
<path d="M15.8337 11.6663C15.8337 11.8874 15.7459 12.0993 15.5896 12.2556C15.4333 12.4119 15.2213 12.4997 15.0003 12.4997C14.7793 12.4997 14.5673 12.4119 14.4111 12.2556C14.2548 12.0993 14.167 11.8874 14.167 11.6663C14.167 11.4453 14.2548 11.2334 14.4111 11.0771C14.5673 10.9208 14.7793 10.833 15.0003 10.833C15.2213 10.833 15.4333 10.9208 15.5896 11.0771C15.7459 11.2334 15.8337 11.4453 15.8337 11.6663Z" fill="#FF60A3"/>
<path fill-rule="evenodd" clip-rule="evenodd" d="M17.3753 8.54177C17.6144 8.53273 17.8524 8.57833 18.0712 8.6751C17.982 7.33676 17.7362 6.3051 16.9662 5.53427C16.342 4.91093 15.5512 4.63427 14.5745 4.5026L14.5395 4.49843C14.5308 4.49182 14.5219 4.48543 14.5128 4.47927L11.3995 2.4151C10.8595 2.06266 10.2285 1.875 9.58366 1.875C8.93879 1.875 8.30786 2.06266 7.76783 2.4151L4.65533 4.47927C4.64599 4.48541 4.63682 4.49181 4.62783 4.49843L4.59283 4.5026C3.61616 4.63427 2.82533 4.91093 2.20116 5.53427C1.57783 6.15843 1.30116 6.94927 1.16949 7.92593C1.04199 8.87593 1.04199 10.0884 1.04199 11.6201V11.7134C1.04199 13.2451 1.04199 14.4584 1.16949 15.4076C1.30116 16.3843 1.57783 17.1751 2.20116 17.7993C2.82533 18.4226 3.61616 18.6993 4.59283 18.8309C5.54283 18.9584 6.75533 18.9584 8.28699 18.9584H10.8803C12.412 18.9584 13.6253 18.9584 14.5745 18.8309C15.5512 18.6993 16.342 18.4226 16.9662 17.7993C17.7362 17.0284 17.982 15.9968 18.0712 14.6576C17.9028 14.7326 17.7212 14.7776 17.5328 14.7893C17.4837 14.7918 17.4303 14.7918 17.3745 14.7918H16.807C16.712 15.9101 16.4978 16.5001 16.082 16.9151C15.7295 17.2676 15.2462 17.4793 14.4078 17.5918C13.552 17.7068 12.4228 17.7084 10.8337 17.7084H8.33366C6.74449 17.7084 5.61616 17.7068 4.75866 17.5918C3.92116 17.4793 3.43783 17.2676 3.08533 16.9151C2.73283 16.5626 2.52116 16.0793 2.40866 15.2409C2.29366 14.3851 2.29199 13.2559 2.29199 11.6668C2.29199 10.0776 2.29366 8.94927 2.40866 8.09177C2.52116 7.25427 2.73283 6.77093 3.08533 6.41843C3.43783 6.06593 3.92116 5.85427 4.75949 5.74177C5.61616 5.62677 6.74449 5.6251 8.33366 5.6251H10.8337C12.4228 5.6251 13.552 5.62677 14.4087 5.74177C15.2462 5.85427 15.7295 6.06593 16.082 6.41843C16.4978 6.83343 16.712 7.42426 16.807 8.54177H17.3612H17.3753ZM8.28699 4.3751H10.8803C11.3112 4.3751 11.7162 4.3751 12.097 4.3776L10.7087 3.45677C10.042 3.0151 9.12533 3.0151 8.45866 3.45677L7.06949 4.3776C7.45116 4.3751 7.85616 4.3751 8.28616 4.3751" fill="#FF60A3"/>
<path d="M5 7.70801C4.83424 7.70801 4.67527 7.77386 4.55806 7.89107C4.44085 8.00828 4.375 8.16725 4.375 8.33301C4.375 8.49877 4.44085 8.65774 4.55806 8.77495C4.67527 8.89216 4.83424 8.95801 5 8.95801H8.33333C8.49909 8.95801 8.65806 8.89216 8.77527 8.77495C8.89249 8.65774 8.95833 8.49877 8.95833 8.33301C8.95833 8.16725 8.89249 8.00828 8.77527 7.89107C8.65806 7.77386 8.49909 7.70801 8.33333 7.70801H5Z" fill="#FF60A3"/>
<path d="M15.8337 11.6663C15.8337 11.8874 15.7459 12.0993 15.5896 12.2556C15.4333 12.4119 15.2213 12.4997 15.0003 12.4997C14.7793 12.4997 14.5673 12.4119 14.4111 12.2556C14.2548 12.0993 14.167 11.8874 14.167 11.6663C14.167 11.4453 14.2548 11.2334 14.4111 11.0771C14.5673 10.9208 14.7793 10.833 15.0003 10.833C15.2213 10.833 15.4333 10.9208 15.5896 11.0771C15.7459 11.2334 15.8337 11.4453 15.8337 11.6663Z" fill="#FF60A3"/>
</svg>
